<?xml version='1.0' encoding='UTF-8' standalone='no'?>
<svg xmlns:xlink="http://www.w3.org/1999/xlink" height="315pt" viewBox="0 0 420 315" xmlns="http://www.w3.org/2000/svg" width="420pt">
 <title>gl2ps_renderer figure</title>
 <desc>
Creator: GL2PS 1.4.2, (C) 1999-2020 C. Geuzaine
For: Octave
CreationDate: Sat Dec 10 22:46:10 2022
</desc>
 <defs/>
 <polygon fill="#ffffff" points="0,0 420,0 420,315 0,315"/>
 <g>
  <polygon fill="#ffffff" points="0,315 420,315 420,0 0,0" shape-rendering="crispEdges"/>
  <clipPath id="cp00420315">
   <polygon points="0,315 420,315 420,0 0,0"/>
  </clipPath>
  <g clip-path="url(#cp00420315)">
   <polygon fill="#ffffff" points="54.6,280.35 380.1,280.35 380.1,23.6252 54.6,23.6252" shape-rendering="crispEdges"/>
   <polyline stroke-width="0.5" stroke-linejoin="miter" stroke-opacity="0.15" stroke="#262626" stroke-dasharray="16,0" fill="none" stroke-linecap="butt" points="54.6,280.35 54.6,23.6252"/>
   <polyline stroke-width="0.5" stroke-linejoin="miter" stroke-opacity="0.15" stroke="#262626" stroke-dasharray="16,0" fill="none" stroke-linecap="butt" points="380.1,280.35 380.1,23.6252"/>
   <polyline stroke-width="0.5" stroke-linejoin="miter" stroke="#262626" fill="none" stroke-linecap="butt" points="54.6,280.35 54.6,277.099"/>
   <polyline stroke-width="0.5" stroke-linejoin="miter" stroke="#262626" fill="none" stroke-linecap="butt" points="380.1,280.35 380.1,277.099"/>
   <text font-family="FreeSans" font-size="10" font-weight="normal" xml:space="preserve" transform="translate(48.6,295.842) rotate(-0,6,-8)" font-style="normal">
    <tspan fill="rgb(38,38,38)" y="-0" x="0 6 ">32</tspan>
   </text>
   <text font-family="FreeSans" font-size="10" font-weight="normal" xml:space="preserve" transform="translate(374.1,295.842) rotate(-0,6,-8)" font-style="normal">
    <tspan fill="rgb(38,38,38)" y="-0" x="0 6 ">64</tspan>
   </text>
   <polyline stroke-width="0.5" stroke-linejoin="miter" stroke-opacity="0.15" stroke="#262626" stroke-dasharray="16,0" fill="none" stroke-linecap="butt" points="54.6,280.35 380.1,280.35"/>
   <polyline stroke-width="0.5" stroke-linejoin="miter" stroke-opacity="0.15" stroke="#262626" stroke-dasharray="16,0" fill="none" stroke-linecap="butt" points="54.6,237.563 380.1,237.563"/>
   <polyline stroke-width="0.5" stroke-linejoin="miter" stroke-opacity="0.15" stroke="#262626" stroke-dasharray="16,0" fill="none" stroke-linecap="butt" points="54.6,194.775 380.1,194.775"/>
   <polyline stroke-width="0.5" stroke-linejoin="miter" stroke-opacity="0.15" stroke="#262626" stroke-dasharray="16,0" fill="none" stroke-linecap="butt" points="54.6,151.988 380.1,151.988"/>
   <polyline stroke-width="0.5" stroke-linejoin="miter" stroke-opacity="0.15" stroke="#262626" stroke-dasharray="16,0" fill="none" stroke-linecap="butt" points="54.6,109.2 380.1,109.2"/>
   <polyline stroke-width="0.5" stroke-linejoin="miter" stroke-opacity="0.15" stroke="#262626" stroke-dasharray="16,0" fill="none" stroke-linecap="butt" points="54.6,66.4126 380.1,66.4126"/>
   <polyline stroke-width="0.5" stroke-linejoin="miter" stroke-opacity="0.15" stroke="#262626" stroke-dasharray="16,0" fill="none" stroke-linecap="butt" points="54.6,23.6252 380.1,23.6252"/>
   <polyline stroke-width="0.5" stroke-linejoin="miter" stroke="#262626" fill="none" stroke-linecap="butt" points="54.6,280.35 57.85,280.35"/>
   <polyline stroke-width="0.5" stroke-linejoin="miter" stroke="#262626" fill="none" stroke-linecap="butt" points="54.6,237.563 57.85,237.563"/>
   <polyline stroke-width="0.5" stroke-linejoin="miter" stroke="#262626" fill="none" stroke-linecap="butt" points="54.6,194.775 57.85,194.775"/>
   <polyline stroke-width="0.5" stroke-linejoin="miter" stroke="#262626" fill="none" stroke-linecap="butt" points="54.6,151.988 57.85,151.988"/>
   <polyline stroke-width="0.5" stroke-linejoin="miter" stroke="#262626" fill="none" stroke-linecap="butt" points="54.6,109.2 57.85,109.2"/>
   <polyline stroke-width="0.5" stroke-linejoin="miter" stroke="#262626" fill="none" stroke-linecap="butt" points="54.6,66.4126 57.85,66.4126"/>
   <polyline stroke-width="0.5" stroke-linejoin="miter" stroke="#262626" fill="none" stroke-linecap="butt" points="54.6,23.6252 57.85,23.6252"/>
   <text font-family="FreeSans" font-size="10" font-weight="normal" xml:space="preserve" transform="translate(34.6077,284.35) rotate(-0,15,-4)" font-style="normal">
    <tspan fill="rgb(38,38,38)" y="-0" x="0 6 9 ">5.3</tspan>
   </text>
   <text font-family="FreeSans" font-size="10" font-weight="normal" xml:space="preserve" transform="translate(28.6077,241.563) rotate(-0,21,-4)" font-style="normal">
    <tspan fill="rgb(38,38,38)" y="-0" x="0 6 9 15 ">5.35</tspan>
   </text>
   <text font-family="FreeSans" font-size="10" font-weight="normal" xml:space="preserve" transform="translate(34.6077,198.775) rotate(-0,15,-4)" font-style="normal">
    <tspan fill="rgb(38,38,38)" y="-0" x="0 6 9 ">5.4</tspan>
   </text>
   <text font-family="FreeSans" font-size="10" font-weight="normal" xml:space="preserve" transform="translate(28.6077,155.988) rotate(-0,21,-4)" font-style="normal">
    <tspan fill="rgb(38,38,38)" y="-0" x="0 6 9 15 ">5.45</tspan>
   </text>
   <text font-family="FreeSans" font-size="10" font-weight="normal" xml:space="preserve" transform="translate(34.6077,113.2) rotate(-0,15,-4)" font-style="normal">
    <tspan fill="rgb(38,38,38)" y="-0" x="0 6 9 ">5.5</tspan>
   </text>
   <text font-family="FreeSans" font-size="10" font-weight="normal" xml:space="preserve" transform="translate(28.6077,70.4125) rotate(-0,21,-4)" font-style="normal">
    <tspan fill="rgb(38,38,38)" y="-0" x="0 6 9 15 ">5.55</tspan>
   </text>
   <text font-family="FreeSans" font-size="10" font-weight="normal" xml:space="preserve" transform="translate(34.6077,27.625) rotate(-0,15,-4)" font-style="normal">
    <tspan fill="rgb(38,38,38)" y="-0" x="0 6 9 ">5.6</tspan>
   </text>
   <polyline stroke-width="0.5" stroke-linejoin="miter" stroke="#262626" stroke-dasharray="16,0" fill="none" stroke-linecap="square" points="54.6,280.35 380.1,280.35"/>
   <polyline stroke-width="0.5" stroke-linejoin="miter" stroke="#262626" stroke-dasharray="16,0" fill="none" stroke-linecap="square" points="54.6,280.35 54.6,23.6252"/>
   <text font-family="FreeSans" font-size="11" font-weight="normal" xml:space="preserve" transform="translate(193.35,311.842) rotate(-0,24,-11)" font-style="normal">
    <tspan fill="rgb(38,38,38)" y="-2" x="0 8 15 24 27 30 38 45 ">RAM [GB]</tspan>
   </text>
   <text font-family="FreeSans" font-size="11" font-weight="normal" xml:space="preserve" transform="translate(-6.89233,151.988) rotate(-90,30.5,0)" font-style="normal">
    <tspan fill="rgb(38,38,38)" y="-2" x="0 7 13 15 17 23 26 29 31 40 46 49 52 58 ">Build time [h]</tspan>
   </text>
   <text font-family="FreeSans" font-size="11" font-weight="bold" xml:space="preserve" transform="translate(138.85,13.625) rotate(-0,78.5,0)" font-style="normal">
    <tspan fill="rgb(0,0,0)" y="-3" x="0 7 14 17 20 23 29 32 38 41 45 51 54 60 66 72 78 84 88 94 97 103 109 115 121 127 130 136 142 148 151 ">Eq.: z = -0.0687x-0.00282 y+5.6</tspan>
   </text>
   <polyline stroke-width="0.5" stroke-linejoin="round" stroke="#0071bc" fill="none" stroke-linecap="butt" points="54.6,75.2076 380.1,144.143"/>
   <polyline stroke-width="0.5" stroke-linejoin="miter" stroke="#0071bc" fill="none" stroke-linecap="square" points="51.6,72.2077 57.6,78.2077"/>
   <polyline stroke-width="0.5" stroke-linejoin="miter" stroke="#0071bc" fill="none" stroke-linecap="square" points="51.6,78.2077 57.6,72.2077"/>
   <polyline stroke-width="0.5" stroke-linejoin="miter" stroke="#0071bc" fill="none" stroke-linecap="square" points="377.1,141.143 383.1,147.143"/>
   <polyline stroke-width="0.5" stroke-linejoin="miter" stroke="#0071bc" fill="none" stroke-linecap="square" points="377.1,147.143 383.1,141.143"/>
   <polyline stroke-width="0.5" stroke-linejoin="round" stroke="#d85218" fill="none" stroke-linecap="butt" points="54.6,162.447 380.1,232.571"/>
   <polyline stroke-width="0.5" stroke-linejoin="miter" stroke="#d85218" fill="none" stroke-linecap="square" points="51.6,159.447 57.6,165.447"/>
   <polyline stroke-width="0.5" stroke-linejoin="miter" stroke="#d85218" fill="none" stroke-linecap="square" points="51.6,165.447 57.6,159.447"/>
   <polyline stroke-width="0.5" stroke-linejoin="miter" stroke="#d85218" fill="none" stroke-linecap="square" points="377.1,229.571 383.1,235.571"/>
   <polyline stroke-width="0.5" stroke-linejoin="miter" stroke="#d85218" fill="none" stroke-linecap="square" points="377.1,235.571 383.1,229.571"/>
   <polyline stroke-width="0.5" stroke-linejoin="round" stroke="#ecb01f" fill="none" stroke-linecap="butt" points="54.6,181.226 380.1,273.457"/>
   <polyline stroke-width="0.5" stroke-linejoin="miter" stroke="#ecb01f" fill="none" stroke-linecap="square" points="51.6,178.226 57.6,184.226"/>
   <polyline stroke-width="0.5" stroke-linejoin="miter" stroke="#ecb01f" fill="none" stroke-linecap="square" points="51.6,184.226 57.6,178.226"/>
   <polyline stroke-width="0.5" stroke-linejoin="miter" stroke="#ecb01f" fill="none" stroke-linecap="square" points="377.1,270.456 383.1,276.456"/>
   <polyline stroke-width="0.5" stroke-linejoin="miter" stroke="#ecb01f" fill="none" stroke-linecap="square" points="377.1,276.456 383.1,270.456"/>
  </g>
  <clipPath id="cp00420315">
   <polygon points="0,315 420,315 420,0 0,0"/>
  </clipPath>
  <g clip-path="url(#cp00420315)">
   <polygon fill="#ffffff" points="314.118,72.8035 372.104,72.8035 372.104,31.6215 314.118,31.6215" shape-rendering="crispEdges"/>
   <polyline stroke-width="0.5" stroke-linejoin="miter" stroke="#262626" stroke-dasharray="16,0" fill="none" stroke-linecap="square" points="314.118,72.8035 372.104,72.8035"/>
   <polyline stroke-width="0.5" stroke-linejoin="miter" stroke="#262626" stroke-dasharray="16,0" fill="none" stroke-linecap="square" points="314.118,31.6215 372.104,31.6215"/>
   <polyline stroke-width="0.5" stroke-linejoin="miter" stroke="#262626" stroke-dasharray="16,0" fill="none" stroke-linecap="square" points="314.118,72.8035 314.118,31.6215"/>
   <polyline stroke-width="0.5" stroke-linejoin="miter" stroke="#262626" stroke-dasharray="16,0" fill="none" stroke-linecap="square" points="372.104,72.8035 372.104,31.6215"/>
   <polyline stroke-width="0.5" stroke-linejoin="round" stroke="#0071bc" fill="none" stroke-linecap="butt" points="318.116,39.8179 338.107,39.8179"/>
   <polyline stroke-width="0.5" stroke-linejoin="miter" stroke="#0071bc" fill="none" stroke-linecap="square" points="325.111,36.8179 331.111,42.8179"/>
   <polyline stroke-width="0.5" stroke-linejoin="miter" stroke="#0071bc" fill="none" stroke-linecap="square" points="325.111,42.8179 331.111,36.8179"/>
   <text font-family="FreeSans" font-size="9" font-weight="normal" xml:space="preserve" transform="translate(342.105,43.8179) rotate(-0,-0,-4)" font-style="normal">
    <tspan fill="rgb(0,0,0)" y="-0" x="0 6 ">HD</tspan>
   </text>
   <polyline stroke-width="0.5" stroke-linejoin="round" stroke="#d85218" fill="none" stroke-linecap="butt" points="318.116,52.2125 338.107,52.2125"/>
   <polyline stroke-width="0.5" stroke-linejoin="miter" stroke="#d85218" fill="none" stroke-linecap="square" points="325.111,49.2125 331.111,55.2125"/>
   <polyline stroke-width="0.5" stroke-linejoin="miter" stroke="#d85218" fill="none" stroke-linecap="square" points="325.111,55.2125 331.111,49.2125"/>
   <text font-family="FreeSans" font-size="9" font-weight="normal" xml:space="preserve" transform="translate(342.105,56.2125) rotate(-0,-0,-4)" font-style="normal">
    <tspan fill="rgb(0,0,0)" y="-0" x="0 6 12 ">SSD</tspan>
   </text>
   <polyline stroke-width="0.5" stroke-linejoin="round" stroke="#ecb01f" fill="none" stroke-linecap="butt" points="318.116,64.6071 338.107,64.6071"/>
   <polyline stroke-width="0.5" stroke-linejoin="miter" stroke="#ecb01f" fill="none" stroke-linecap="square" points="325.111,61.6071 331.111,67.6071"/>
   <polyline stroke-width="0.5" stroke-linejoin="miter" stroke="#ecb01f" fill="none" stroke-linecap="square" points="325.111,67.6071 331.111,61.6071"/>
   <text font-family="FreeSans" font-size="9" font-weight="normal" xml:space="preserve" transform="translate(342.105,68.6071) rotate(-0,-0,-4)" font-style="normal">
    <tspan fill="rgb(0,0,0)" y="-0" x="0 7 13 21 ">NVMe</tspan>
   </text>
  </g>
 </g>
</svg>
